<?xml version="1.0" encoding="UTF-8"?>
<svg xmlns="http://www.w3.org/2000/svg" width="824" height="488" viewBox="0 0 824 488">
  <defs>
    <pattern id="hatch-x" width="8" height="8" patternUnits="userSpaceOnUse">
      <path d="M0,8 L8,0" stroke="#ff6b6b" stroke-width="1"/>
    </pattern>
  </defs>
  <rect width="100%" height="100%" fill="#ffffff"/>
  <rect x="0" y="0" width="104" height="488" fill="#f8fafc"/>
<text x="8" y="62" fill="#111827" font-family="sans-serif" font-weight="600" font-size="11" dominant-baseline="middle">AR channel</text>
<text x="20" y="96" fill="#111827" font-family="sans-serif" font-weight="400" font-size="12" dominant-baseline="middle">ACLK</text>
<text x="20" y="136" fill="#111827" font-family="sans-serif" font-weight="400" font-size="12" dominant-baseline="middle">ARADDR</text>
<text x="20" y="176" fill="#111827" font-family="sans-serif" font-weight="400" font-size="12" dominant-baseline="middle">ARVALID</text>
<text x="20" y="216" fill="#111827" font-family="sans-serif" font-weight="400" font-size="12" dominant-baseline="middle">ARREADY</text>
<text x="8" y="256" fill="#111827" font-family="sans-serif" font-weight="400" font-size="12" dominant-baseline="middle"></text>
<text x="8" y="290" fill="#111827" font-family="sans-serif" font-weight="600" font-size="11" dominant-baseline="middle">R channel</text>
<text x="20" y="324" fill="#111827" font-family="sans-serif" font-weight="400" font-size="12" dominant-baseline="middle">RDATA</text>
<text x="20" y="364" fill="#111827" font-family="sans-serif" font-weight="400" font-size="12" dominant-baseline="middle">RLAST</text>
<text x="20" y="404" fill="#111827" font-family="sans-serif" font-weight="400" font-size="12" dominant-baseline="middle">RVALID</text>
<text x="20" y="444" fill="#111827" font-family="sans-serif" font-weight="400" font-size="12" dominant-baseline="middle">RREADY</text>
  <g transform="translate(104, 0)">
    <rect x="0" y="0" width="720" height="24" fill="#f8fafc"/>
<text x="40" y="12" fill="#475569" font-size="11" font-family="sans-serif" text-anchor="middle" dominant-baseline="middle">0</text>
<text x="120" y="12" fill="#475569" font-size="11" font-family="sans-serif" text-anchor="middle" dominant-baseline="middle">1</text>
<text x="200" y="12" fill="#475569" font-size="11" font-family="sans-serif" text-anchor="middle" dominant-baseline="middle">2</text>
<text x="280" y="12" fill="#475569" font-size="11" font-family="sans-serif" text-anchor="middle" dominant-baseline="middle">3</text>
<text x="360" y="12" fill="#475569" font-size="11" font-family="sans-serif" text-anchor="middle" dominant-baseline="middle">4</text>
<text x="440" y="12" fill="#475569" font-size="11" font-family="sans-serif" text-anchor="middle" dominant-baseline="middle">5</text>
<text x="520" y="12" fill="#475569" font-size="11" font-family="sans-serif" text-anchor="middle" dominant-baseline="middle">6</text>
<text x="600" y="12" fill="#475569" font-size="11" font-family="sans-serif" text-anchor="middle" dominant-baseline="middle">7</text>
<text x="680" y="12" fill="#475569" font-size="11" font-family="sans-serif" text-anchor="middle" dominant-baseline="middle">8</text>
<text x="360" y="38" fill="#111827" font-size="12" font-family="sans-serif" text-anchor="middle" dominant-baseline="middle">AXI4 single read (AR + R)</text>
<text x="360" y="478" fill="#111827" font-size="12" font-family="sans-serif" text-anchor="middle" dominant-baseline="middle">ARLEN=0; RLAST=1 with RVALID; gist.github.com/2878346 style</text>
<line x1="0" y1="48" x2="0" y2="464" stroke="#cbd5e1" stroke-width="1"/>
<line x1="80" y1="48" x2="80" y2="464" stroke="#cbd5e1" stroke-width="1"/>
<line x1="160" y1="48" x2="160" y2="464" stroke="#cbd5e1" stroke-width="1"/>
<line x1="240" y1="48" x2="240" y2="464" stroke="#cbd5e1" stroke-width="1"/>
<line x1="320" y1="48" x2="320" y2="464" stroke="#cbd5e1" stroke-width="1"/>
<line x1="400" y1="48" x2="400" y2="464" stroke="#cbd5e1" stroke-width="1"/>
<line x1="480" y1="48" x2="480" y2="464" stroke="#cbd5e1" stroke-width="1"/>
<line x1="560" y1="48" x2="560" y2="464" stroke="#cbd5e1" stroke-width="1"/>
<line x1="640" y1="48" x2="640" y2="464" stroke="#cbd5e1" stroke-width="1"/>
<line x1="720" y1="48" x2="720" y2="464" stroke="#cbd5e1" stroke-width="1"/>
<path d="M0,108 L0,84 L40,84 L40,108 L80,108" fill="none" stroke="#4A9EFF" stroke-width="2"/>
<polygon points="0,92 -3,98 3,98" fill="#4A9EFF"/>
<path d="M80,108 L80,84 L120,84 L120,108 L160,108" fill="none" stroke="#4A9EFF" stroke-width="2"/>
<polygon points="80,92 77,98 83,98" fill="#4A9EFF"/>
<path d="M160,108 L160,84 L200,84 L200,108 L240,108" fill="none" stroke="#4A9EFF" stroke-width="2"/>
<polygon points="160,92 157,98 163,98" fill="#4A9EFF"/>
<path d="M240,108 L240,84 L280,84 L280,108 L320,108" fill="none" stroke="#4A9EFF" stroke-width="2"/>
<polygon points="240,92 237,98 243,98" fill="#4A9EFF"/>
<path d="M320,108 L320,84 L360,84 L360,108 L400,108" fill="none" stroke="#4A9EFF" stroke-width="2"/>
<polygon points="320,92 317,98 323,98" fill="#4A9EFF"/>
<path d="M400,108 L400,84 L440,84 L440,108 L480,108" fill="none" stroke="#4A9EFF" stroke-width="2"/>
<polygon points="400,92 397,98 403,98" fill="#4A9EFF"/>
<path d="M480,108 L480,84 L520,84 L520,108 L560,108" fill="none" stroke="#4A9EFF" stroke-width="2"/>
<polygon points="480,92 477,98 483,98" fill="#4A9EFF"/>
<path d="M560,108 L560,84 L600,84 L600,108 L640,108" fill="none" stroke="#4A9EFF" stroke-width="2"/>
<polygon points="560,92 557,98 563,98" fill="#4A9EFF"/>
<path d="M640,108 L640,84 L680,84 L680,108 L720,108" fill="none" stroke="#4A9EFF" stroke-width="2"/>
<polygon points="640,92 637,98 643,98" fill="#4A9EFF"/>
<path d="M0,136 L16,124 L224,124 L240,136 L224,148 L16,148 Z" fill="rgba(140, 140, 140, 0.35)" stroke="#a0a0a0" stroke-width="2"/>
<text x="120" y="136" fill="#b0b0b0" font-size="14" font-family="sans-serif" font-weight="400" text-anchor="middle" dominant-baseline="middle">x</text>
<path d="M240,136 L256,124 L304,124 L320,136 L304,148 L256,148 Z" fill="#ffffff" stroke="#000000" stroke-width="2"/>
<text x="280" y="136" fill="#172033" font-size="14" font-family="sans-serif" font-weight="400" text-anchor="middle" dominant-baseline="middle">0x07000100</text>
<path d="M320,136 L336,124 L704,124 L720,136 L704,148 L336,148 Z" fill="rgba(140, 140, 140, 0.35)" stroke="#a0a0a0" stroke-width="2"/>
<text x="520" y="136" fill="#b0b0b0" font-size="14" font-family="sans-serif" font-weight="400" text-anchor="middle" dominant-baseline="middle">x</text>
<path d="M0,188 L80,188 L160,188 L240,188 L246,188 L252,164 L320,164 L400,164 L480,164 L486,164 L492,188 L560,188 L640,188 L720,188" fill="none" stroke="#4A9EFF" stroke-width="2"/>
<path d="M0,228 L80,228 L160,228 L240,228 L320,228 L326,228 L332,204 L400,204 L480,204 L560,204 L566,204 L572,228 L640,228 L720,228" fill="none" stroke="#4A9EFF" stroke-width="2"/>
<path d="M0,324 L16,312 L464,312 L480,324 L464,336 L16,336 Z" fill="rgba(140, 140, 140, 0.35)" stroke="#a0a0a0" stroke-width="2"/>
<text x="240" y="324" fill="#b0b0b0" font-size="14" font-family="sans-serif" font-weight="400" text-anchor="middle" dominant-baseline="middle">x</text>
<path d="M480,324 L496,312 L544,312 L560,324 L544,336 L496,336 Z" fill="#ffffff" stroke="#000000" stroke-width="2"/>
<text x="520" y="324" fill="#172033" font-size="14" font-family="sans-serif" font-weight="400" text-anchor="middle" dominant-baseline="middle">0x07000100</text>
<path d="M560,324 L576,312 L704,312 L720,324 L704,336 L576,336 Z" fill="rgba(140, 140, 140, 0.35)" stroke="#a0a0a0" stroke-width="2"/>
<text x="640" y="324" fill="#b0b0b0" font-size="14" font-family="sans-serif" font-weight="400" text-anchor="middle" dominant-baseline="middle">x</text>
<path d="M0,376 L80,376 L160,376 L240,376 L320,376 L400,376 L480,376 L486,376 L492,352 L560,352 L640,352 L646,352 L652,376 L720,376" fill="none" stroke="#4A9EFF" stroke-width="2"/>
<path d="M0,416 L80,416 L160,416 L240,416 L320,416 L400,416 L480,416 L486,416 L492,392 L560,392 L640,392 L646,392 L652,416 L720,416" fill="none" stroke="#4A9EFF" stroke-width="2"/>
<path d="M0,456 L80,456 L160,456 L240,456 L314,456 L317,432 L320,456 L400,456 L480,456 L486,456 L492,432 L560,432 L640,432 L646,432 L652,456 L720,456" fill="none" stroke="#4A9EFF" stroke-width="2"/>
  </g>
</svg>