<?xml version="1.0" encoding="UTF-8"?>
<svg xmlns="http://www.w3.org/2000/svg" width="264" height="128" viewBox="0 0 264 128">
  <defs>
    <pattern id="hatch-x" width="8" height="8" patternUnits="userSpaceOnUse">
      <path d="M0,8 L8,0" stroke="#ff6b6b" stroke-width="1"/>
    </pattern>
  </defs>
  <rect width="100%" height="100%" fill="#ffffff"/>
  <rect x="0" y="0" width="104" height="128" fill="#f8fafc"/>
<text x="8" y="68" fill="#111827" font-family="sans-serif" font-weight="400" font-size="12" dominant-baseline="middle">request</text>
<text x="8" y="108" fill="#111827" font-family="sans-serif" font-weight="400" font-size="12" dominant-baseline="middle">ack</text>
  <g transform="translate(104, 0)">
    <rect x="0" y="0" width="160" height="24" fill="#f8fafc"/>
<text x="20" y="12" fill="#475569" font-size="11" font-family="sans-serif" text-anchor="middle" dominant-baseline="middle">0</text>
<text x="60" y="12" fill="#475569" font-size="11" font-family="sans-serif" text-anchor="middle" dominant-baseline="middle">1</text>
<text x="100" y="12" fill="#475569" font-size="11" font-family="sans-serif" text-anchor="middle" dominant-baseline="middle">2</text>
<text x="140" y="12" fill="#475569" font-size="11" font-family="sans-serif" text-anchor="middle" dominant-baseline="middle">3</text>
<text x="80" y="38" fill="#111827" font-size="12" font-family="sans-serif" text-anchor="middle" dominant-baseline="middle">Select, drag, style, and re-anchor annotations</text>
<line x1="0" y1="48" x2="0" y2="128" stroke="#cbd5e1" stroke-width="1"/>
<line x1="40" y1="48" x2="40" y2="128" stroke="#cbd5e1" stroke-width="1"/>
<line x1="80" y1="48" x2="80" y2="128" stroke="#cbd5e1" stroke-width="1"/>
<line x1="120" y1="48" x2="120" y2="128" stroke="#cbd5e1" stroke-width="1"/>
<line x1="160" y1="48" x2="160" y2="128" stroke="#cbd5e1" stroke-width="1"/>
<path d="M0,80 L40,80 L43,80 L46,56 L80,56 L120,56 L160,56" fill="none" stroke="#4A9EFF" stroke-width="2"/>
<path d="M0,120 L40,120 L80,120 L83,120 L86,96 L120,96 L160,96" fill="none" stroke="#4A9EFF" stroke-width="2"/>
<line x1="60" y1="48" x2="60" y2="128" stroke="#111827" stroke-width="1.5" stroke-dasharray="5 4"/>
<line x1="40" y1="108" x2="120" y2="108" stroke="#111827" stroke-width="1.5" stroke-dasharray="5 4"/>
<rect x="134" y="48" width="12" height="80" fill="#ffffff"/>
<line x1="137" y1="48" x2="137" y2="128" stroke="#111827" stroke-width="1.5"/>
<line x1="143" y1="48" x2="143" y2="128" stroke="#111827" stroke-width="1.5"/>
<defs><marker id="undulate-arrow-0" markerWidth="8" markerHeight="8" refX="7" refY="4" orient="auto-start-reverse"><path d="M0,0 L8,4 L0,8" fill="none" stroke="#111827"/></marker></defs><path d="M 61 67 C 80.5 67, 80.5 108, 100 108" fill="none" stroke="#111827" stroke-width="1.5" marker-start="url(#undulate-arrow-0)" marker-end="url(#undulate-arrow-0)"/><rect x="53.3" y="78.4" width="58.4" height="16.200000000000003" fill="#ffffff"/><text x="82.5" y="86.5" fill="#111827" text-anchor="middle" dominant-baseline="middle" font-family="sans-serif" font-weight="400" font-size="12">latency</text>
<rect x="-4.399999999999999" y="52.55" width="108.8" height="18.900000000000002" fill="#ffffff"/><text x="50" y="62" fill="#224488" stroke="none" stroke-width="0" paint-order="stroke" stroke-linejoin="round" text-anchor="middle" dominant-baseline="middle" font-family="serif" font-weight="700" font-size="14">setup window</text>
  </g>
</svg>